<svg width="486" height="457" viewBox="0 0 486 457" fill="none" xmlns="http://www.w3.org/2000/svg">
<g opacity="0.5">
<path d="M0 11.7986V445.201H486V11.7986H0ZM59.9789 66.4695H426.022V304.146H59.9789V66.4695Z" fill="black"/>
<path d="M134.56 167.608C133.792 167.608 133.152 167.192 132.64 166.36C132.256 165.976 132 165.432 131.872 164.728C131.808 164.088 132.032 162.904 132.544 161.176C133.056 159.384 133.92 156.664 135.136 153.016C135.776 150.584 136.288 148.824 136.672 147.736C137.056 146.584 137.248 145.752 137.248 145.24C137.248 144.536 137.312 143.96 137.44 143.512C137.632 143 137.728 142.52 137.728 142.072C138.112 142.072 138.496 141.72 138.88 141.016C139.264 140.312 139.584 139.352 139.84 138.136C140.096 137.048 140.32 136.184 140.512 135.544C140.768 134.84 140.896 134.36 140.896 134.104C141.216 133.592 141.536 132.792 141.856 131.704C142.24 130.616 142.816 129.304 143.584 127.768C144.096 125.848 144.672 123.864 145.312 121.816C145.952 119.704 146.592 117.752 147.232 115.96C147.936 114.104 148.512 112.664 148.96 111.64C149.664 109.656 150.208 108.28 150.592 107.512C150.976 106.68 150.976 106.136 150.592 105.88C150.144 105.56 150.048 105.016 150.304 104.248C150.56 103.48 151.264 102.616 152.416 101.656C153.12 100.824 153.728 100.248 154.24 99.928C154.752 99.544 155.392 99.352 156.16 99.352C156.992 99.352 158.176 99.416 159.712 99.544C160.864 99.608 162.08 99.64 163.36 99.64C164.704 99.64 165.536 99.64 165.856 99.64C166.432 99.896 167.136 100.184 167.968 100.504C168.8 100.76 169.536 101.016 170.176 101.272C170.88 101.528 171.232 101.752 171.232 101.944C171.232 102.328 171.36 102.584 171.616 102.712C171.936 102.776 172.256 102.84 172.576 102.904C173.024 102.904 173.632 103.256 174.4 103.96C175.168 104.6 175.968 105.432 176.8 106.456C177.632 107.416 178.272 108.44 178.72 109.528C179.232 110.616 179.616 111.64 179.872 112.6C180.192 113.56 180.192 114.936 179.872 116.728C179.808 117.688 179.648 118.648 179.392 119.608C179.2 120.568 178.976 121.208 178.72 121.528C178.336 121.784 177.984 122.104 177.664 122.488C177.344 122.872 177.184 123.224 177.184 123.544C177.184 123.8 176.96 124.312 176.512 125.08C176.064 125.784 175.488 126.616 174.784 127.576C174.08 128.536 173.312 129.496 172.48 130.456C171.648 131.416 170.848 132.248 170.08 132.952C169.248 133.976 168.256 134.936 167.104 135.832C166.016 136.728 165.024 137.464 164.128 138.04C162.464 138.808 160.608 139.576 158.56 140.344C156.576 141.112 154.656 141.752 152.8 142.264C151.008 142.776 149.504 143 148.288 142.936C146.432 143.192 145.216 143.448 144.64 143.704C144.128 143.896 143.744 144.44 143.488 145.336C143.168 146.168 142.848 147.032 142.528 147.928C142.272 148.76 142.144 149.336 142.144 149.656C142.016 149.912 141.696 150.712 141.184 152.056C140.736 153.336 140.224 154.84 139.648 156.568C139.136 158.296 138.624 159.992 138.112 161.656C137.6 163.32 137.216 164.696 136.96 165.784C136.704 166.68 136.384 167.192 136 167.32C135.616 167.512 135.136 167.608 134.56 167.608ZM146.464 137.848C146.72 138.104 147.712 138.136 149.44 137.944C151.168 137.752 153.024 137.272 155.008 136.504C156.288 136.056 157.568 135.512 158.848 134.872C160.192 134.232 161.472 133.528 162.688 132.76C163.328 132.312 164.288 131.512 165.568 130.36C166.848 129.208 168.128 127.832 169.408 126.232C169.6 125.912 169.92 125.304 170.368 124.408C170.88 123.448 171.328 122.552 171.712 121.72C172.288 120.824 172.864 119.512 173.44 117.784C174.016 115.992 174.144 114.52 173.824 113.368C173.504 111.704 172.672 110.168 171.328 108.76C169.984 107.288 168.384 106.296 166.528 105.784C165.12 105.528 163.936 105.4 162.976 105.4C162.08 105.4 161.088 105.496 160 105.688C158.976 106.008 158.208 106.456 157.696 107.032C157.248 107.608 156.64 108.824 155.872 110.68C155.424 111.576 154.784 112.952 153.952 114.808C153.12 116.6 152.416 118.296 151.84 119.896C150.688 124.12 149.536 127.608 148.384 130.36C147.296 133.048 146.624 134.744 146.368 135.448C146.432 136.152 146.4 136.664 146.272 136.984C146.144 137.24 146.208 137.528 146.464 137.848ZM181.779 171.832C181.779 171.832 181.555 171.736 181.107 171.544C180.723 171.416 180.275 171.384 179.763 171.448C178.739 171.256 177.971 170.712 177.459 169.816C177.011 168.984 176.883 168.056 177.075 167.032C177.331 166.776 177.491 166.232 177.555 165.4C177.683 164.568 177.747 163.896 177.747 163.384C177.939 162.872 178.067 162.488 178.131 162.232C178.195 161.976 178.355 161.336 178.611 160.312C178.739 159.224 178.995 157.72 179.379 155.8C179.827 153.816 180.307 151.704 180.819 149.464C181.331 147.16 181.843 144.984 182.355 142.936C182.931 140.824 183.411 139.064 183.795 137.656C184.243 136.248 184.563 135.448 184.755 135.256C184.755 135.256 184.755 135.16 184.755 134.968C184.755 134.712 184.723 134.456 184.659 134.2C184.659 134.2 184.691 133.912 184.755 133.336C184.883 132.696 185.171 131.96 185.619 131.128C185.875 130.424 186.067 129.656 186.195 128.824C186.387 127.992 186.483 127.448 186.483 127.192C186.739 126.872 187.059 126.104 187.443 124.888C187.891 123.608 188.339 122.328 188.787 121.048C189.107 120.024 189.459 118.936 189.843 117.784C190.291 116.632 190.675 115.64 190.995 114.808C191.379 113.912 191.571 113.464 191.571 113.464C191.571 113.208 191.571 113.08 191.571 113.08C191.571 113.016 191.571 112.984 191.571 112.984C191.763 112.728 192.307 111.416 193.203 109.048C194.163 106.68 195.443 103.608 197.043 99.832C197.299 99.32 197.587 98.744 197.907 98.104C198.291 97.464 198.483 97.016 198.483 96.76C198.803 96.248 199.251 95.992 199.827 95.992C200.403 95.992 200.979 96.184 201.555 96.568C202.195 96.888 202.675 97.4 202.995 98.104L204.051 99.64L200.787 106.648C199.891 108.44 199.123 110.104 198.483 111.64C197.843 113.112 197.523 113.976 197.523 114.232C197.523 114.232 197.331 114.744 196.947 115.768C196.627 116.792 196.211 118.04 195.699 119.512C195.251 120.92 194.867 122.2 194.547 123.352C193.907 125.4 193.299 127.064 192.723 128.344C192.211 129.624 191.955 130.392 191.955 130.648C191.955 130.52 192.659 130.424 194.067 130.36C195.475 130.232 197.267 130.136 199.443 130.072C201.619 129.944 203.827 129.848 206.067 129.784C208.371 129.656 210.387 129.528 212.115 129.4C213.907 129.272 215.123 129.144 215.763 129.016L220.659 128.44L223.635 118.456C224.083 116.6 224.659 114.392 225.363 111.832C226.131 109.272 226.803 107.064 227.379 105.208C228.275 102.2 229.011 100.344 229.587 99.64C230.163 98.936 230.835 98.584 231.603 98.584C231.859 98.52 232.275 98.616 232.851 98.872C233.491 99.128 233.939 99.512 234.195 100.024C235.027 100.664 235.411 101.432 235.347 102.328C235.347 103.224 234.867 104.44 233.907 105.976C233.011 107.704 232.243 109.592 231.603 111.64C231.027 113.688 230.483 115.352 229.971 116.632C230.035 117.4 229.971 118.04 229.779 118.552C229.587 119 229.363 119.384 229.107 119.704C228.979 119.832 228.723 120.312 228.339 121.144C228.019 121.976 227.699 122.808 227.379 123.64C227.123 124.472 226.995 124.984 226.995 125.176C227.059 125.624 226.995 126.2 226.803 126.904C226.611 127.544 226.387 127.992 226.131 128.248C226.067 128.632 225.843 129.624 225.459 131.224C225.075 132.76 224.595 134.584 224.019 136.696C223.507 138.744 222.963 140.76 222.387 142.744C221.875 144.728 221.363 146.36 220.851 147.64C220.915 148.088 220.787 148.664 220.467 149.368C220.147 150.008 220.019 150.584 220.083 151.096C219.827 151.864 219.507 152.856 219.123 154.072C218.803 155.224 218.675 155.96 218.739 156.28C218.483 157.752 218.195 159.256 217.875 160.792C217.555 162.328 217.299 163.64 217.107 164.728C216.915 165.88 216.819 166.552 216.819 166.744C216.627 167 216.243 167.032 215.667 166.84C215.155 166.712 214.547 166.52 213.843 166.264C212.627 165.56 211.891 164.824 211.635 164.056C211.379 163.288 211.571 162.168 212.211 160.696C212.531 160.184 212.883 158.904 213.267 156.856C213.715 154.808 214.163 152.792 214.611 150.808C214.931 149.848 215.283 148.536 215.667 146.872C216.051 145.208 216.435 143.544 216.819 141.88C217.203 140.216 217.523 138.776 217.779 137.56C218.099 136.344 218.323 135.672 218.451 135.544C218.451 135.288 218.451 135.064 218.451 134.872C218.451 134.68 218.451 134.584 218.451 134.584C218.323 134.456 217.523 134.392 216.051 134.392C214.579 134.328 212.755 134.328 210.579 134.392C208.403 134.456 206.131 134.584 203.763 134.776C201.459 134.968 199.379 135.224 197.523 135.544C196.819 135.608 196.019 135.64 195.123 135.64C194.227 135.64 193.523 135.672 193.011 135.736C192.307 135.736 191.699 135.768 191.187 135.832C190.739 135.832 190.515 135.832 190.515 135.832C190.451 136.024 190.227 136.696 189.843 137.848C189.523 139 189.139 140.408 188.691 142.072C188.243 143.672 187.763 145.336 187.251 147.064C186.803 148.792 186.419 150.36 186.099 151.768C185.779 153.112 185.587 154.104 185.523 154.744C185.331 155.896 185.043 157.368 184.659 159.16C184.275 160.888 183.859 162.648 183.411 164.44C183.027 166.232 182.675 167.8 182.355 169.144C182.099 170.552 181.907 171.448 181.779 171.832ZM239.519 164.92C237.151 163.128 235.647 161.752 235.007 160.792C234.367 159.768 233.983 158.552 233.855 157.144C233.727 155.992 233.727 154.424 233.855 152.44C234.047 150.456 234.271 148.504 234.527 146.584C234.783 144.664 235.007 143.224 235.199 142.264C235.519 141.944 235.647 141.528 235.583 141.016C235.583 140.44 235.583 140.152 235.583 140.152C235.519 139.832 235.743 139 236.255 137.656C236.767 136.248 237.247 134.456 237.695 132.28C238.975 128.44 240.191 125.24 241.343 122.68C242.559 120.056 243.743 117.816 244.895 115.96C246.047 114.104 247.199 112.408 248.351 110.872C250.975 108.184 253.087 106.168 254.687 104.824C256.287 103.416 258.079 102.264 260.063 101.368C261.343 100.6 262.527 99.992 263.615 99.544C264.703 99.096 265.599 99.032 266.303 99.352C269.887 100.12 272.575 101.592 274.367 103.768C276.159 105.88 277.471 109.176 278.303 113.656C278.751 116.472 279.007 119.032 279.071 121.336C279.199 123.576 279.039 125.816 278.591 128.056C278.143 130.232 277.311 132.632 276.095 135.256C274.943 137.88 273.311 140.952 271.199 144.472C268.959 148.888 266.431 152.728 263.615 155.992C260.863 159.256 258.015 161.816 255.071 163.672C252.191 165.592 249.375 166.68 246.623 166.936C243.935 167.192 241.567 166.52 239.519 164.92ZM245.663 162.136C247.135 161.944 248.543 161.496 249.887 160.792C251.231 160.088 252.639 159.064 254.111 157.72C255.583 156.312 257.247 154.552 259.103 152.44C260.767 150.52 262.111 148.92 263.135 147.64C264.223 146.296 265.119 144.952 265.823 143.608C266.591 142.264 267.295 140.632 267.935 138.712C268.639 136.792 269.439 134.296 270.335 131.224C270.847 129.304 271.231 127.704 271.487 126.424C271.743 125.144 271.903 123.96 271.967 122.872C272.031 121.72 272.031 120.408 271.967 118.936C271.967 117.464 271.967 115.576 271.967 113.272C271.903 112.184 271.679 111.064 271.295 109.912C270.911 108.696 270.463 107.8 269.951 107.224C269.311 106.52 268.415 106.04 267.263 105.784C266.111 105.464 264.831 105.624 263.423 106.264C262.655 106.584 261.663 107.32 260.447 108.472C259.231 109.56 257.951 110.84 256.607 112.312C255.263 113.784 253.983 115.288 252.767 116.824C251.615 118.36 250.655 119.736 249.887 120.952C249.183 122.104 248.831 122.904 248.831 123.352C248.831 123.352 248.799 123.512 248.735 123.832C248.735 124.152 248.607 124.472 248.351 124.792C247.519 125.688 246.591 127.288 245.567 129.592C244.607 131.896 243.679 134.52 242.783 137.464C241.887 140.344 241.119 143.224 240.479 146.104C239.903 148.92 239.551 151.384 239.423 153.496C239.295 155.224 239.231 156.408 239.231 157.048C239.231 157.688 239.359 158.2 239.615 158.584C239.871 158.904 240.287 159.544 240.863 160.504C241.247 161.144 241.887 161.624 242.783 161.944C243.743 162.264 244.703 162.328 245.663 162.136ZM291.39 165.304C290.75 165.432 290.046 165.4 289.278 165.208C288.51 165.08 287.87 164.6 287.358 163.768C286.846 162.936 286.686 161.56 286.878 159.64C287.07 157.72 287.774 155.096 288.99 151.768C289.182 151.192 289.566 150.04 290.142 148.312C290.782 146.52 291.486 144.536 292.254 142.36C293.022 140.184 293.758 138.168 294.462 136.312C295.23 134.456 295.838 133.176 296.286 132.472C296.542 131.896 296.67 131.416 296.67 131.032C296.734 130.648 296.766 130.328 296.766 130.072C296.766 129.752 296.894 129.336 297.15 128.824C297.47 128.248 297.758 127.672 298.014 127.096C298.334 126.456 298.59 125.88 298.782 125.368C299.038 124.792 299.166 124.312 299.166 123.928C299.166 123.928 299.326 123.384 299.646 122.296C299.966 121.144 300.382 119.832 300.894 118.36C301.406 116.888 301.982 115.672 302.622 114.712C303.198 113.24 303.742 111.96 304.254 110.872C304.766 109.784 305.022 109.048 305.022 108.664C305.022 108.536 304.318 108.472 302.91 108.472C301.502 108.472 299.806 108.536 297.822 108.664C295.838 108.728 293.982 108.824 292.254 108.952C290.526 109.08 289.31 109.24 288.606 109.432C288.03 109.56 287.518 109.688 287.07 109.816C286.622 109.88 286.334 109.88 286.206 109.816C285.95 109.688 285.63 109.336 285.246 108.76C284.926 108.184 284.734 107.544 284.67 106.84C284.67 106.072 285.022 105.496 285.726 105.112C286.878 104.408 287.902 103.992 288.798 103.864C289.758 103.736 290.782 103.672 291.87 103.672C293.022 103.608 294.398 103.48 295.998 103.288C297.47 103.288 298.75 103.224 299.838 103.096C300.926 102.904 301.598 102.808 301.854 102.808C302.494 102.808 303.262 102.68 304.158 102.424C305.118 102.168 306.206 102.04 307.422 102.04C308.254 102.04 309.086 101.976 309.918 101.848C310.75 101.656 311.486 101.56 312.126 101.56C312.446 101.56 313.214 101.56 314.43 101.56C315.646 101.56 316.862 101.56 318.078 101.56C318.974 101.56 320.19 101.432 321.726 101.176C323.262 100.92 324.51 100.664 325.47 100.408C328.414 99.768 330.686 99.608 332.286 99.928C333.95 100.248 335.07 101.208 335.646 102.808C335.902 104.216 334.878 105.208 332.574 105.784C330.334 106.296 326.366 106.712 320.67 107.032C317.918 107.288 316.03 107.48 315.006 107.608C313.982 107.736 313.47 108.088 313.47 108.664C313.47 109.048 313.31 109.4 312.99 109.72C312.734 109.976 312.478 110.264 312.222 110.584C311.966 110.712 311.55 111.32 310.974 112.408C310.462 113.496 309.95 114.744 309.438 116.152C308.926 117.56 308.478 118.872 308.094 120.088C307.71 121.24 307.518 121.976 307.518 122.296C307.518 122.296 307.39 122.52 307.134 122.968C306.942 123.352 306.846 123.672 306.846 123.928C306.59 124.568 306.238 125.304 305.79 126.136C305.406 126.968 305.054 127.704 304.734 128.344C303.774 130.904 302.974 132.952 302.334 134.488C301.758 136.024 301.278 137.24 300.894 138.136C300.574 138.968 300.286 139.704 300.03 140.344C299.774 141.176 299.358 142.584 298.782 144.568C298.206 146.552 297.598 148.312 296.958 149.848C296.638 150.296 296.35 150.616 296.094 150.808C295.902 150.936 295.806 151.256 295.806 151.768C295.806 151.832 295.678 152.344 295.422 153.304C295.166 154.264 294.814 155.416 294.366 156.76C293.982 158.04 293.566 159.352 293.118 160.696C292.734 161.976 292.382 163.064 292.062 163.96C291.742 164.856 291.518 165.304 291.39 165.304ZM333.462 162.424C330.134 161.208 327.766 159.032 326.358 155.896C325.014 152.76 324.758 148.76 325.59 143.896C325.718 142.04 326.006 140.376 326.454 138.904C326.966 137.432 327.35 135.96 327.606 134.488C327.606 134.36 327.67 134.168 327.798 133.912C327.926 133.592 327.958 133.304 327.894 133.048C328.022 132.664 328.31 131.96 328.758 130.936C329.206 129.848 329.654 128.824 330.102 127.864C330.55 126.84 330.838 126.264 330.966 126.136C331.286 126.008 331.446 125.848 331.446 125.656C331.446 125.4 331.446 125.272 331.446 125.272C331.446 124.76 331.798 123.832 332.502 122.488C333.206 121.144 334.102 119.672 335.19 118.072C336.342 116.408 337.494 114.808 338.646 113.272C339.798 111.736 340.822 110.456 341.718 109.432C342.614 108.408 343.19 107.896 343.446 107.896C343.638 107.896 343.798 107.768 343.926 107.512C344.054 107.256 344.182 107.096 344.31 107.032C344.502 106.776 344.982 106.424 345.75 105.976C346.582 105.528 347.542 105.048 348.63 104.536C349.718 104.024 350.806 103.544 351.894 103.096C353.046 102.648 354.102 102.328 355.062 102.136C357.878 101.112 360.214 101.08 362.07 102.04C363.926 102.936 365.334 104.728 366.294 107.416C367.318 110.104 367.862 113.624 367.926 117.976C367.67 119.384 367.51 120.728 367.446 122.008C367.446 123.224 367.35 124.12 367.158 124.696C367.094 126.104 366.87 127.704 366.486 129.496C366.102 131.288 365.718 132.856 365.333 134.2C364.95 135.48 364.662 136.152 364.47 136.216C364.47 136.472 364.406 136.728 364.278 136.984C364.15 137.176 364.086 137.368 364.086 137.56C364.15 137.88 363.926 138.616 363.414 139.768C362.902 140.92 362.294 142.2 361.59 143.608C360.886 145.016 360.246 146.232 359.67 147.256C359.094 148.28 358.742 148.792 358.614 148.792C358.614 148.792 358.55 148.824 358.422 148.888C358.294 148.888 358.262 149.016 358.326 149.272C358.39 149.4 358.166 149.72 357.654 150.232C357.142 150.744 356.566 151.256 355.926 151.768C355.35 152.216 354.902 152.44 354.582 152.44C354.582 152.44 354.518 152.472 354.39 152.536C354.326 152.6 354.39 152.728 354.582 152.92C354.646 153.048 354.198 153.528 353.238 154.36C352.342 155.128 351.19 156.024 349.782 157.048C348.374 158.008 346.934 158.936 345.462 159.832C344.054 160.664 342.87 161.176 341.91 161.368C341.718 161.624 341.526 161.784 341.334 161.848C341.142 161.848 340.886 161.88 340.566 161.944C340.118 162.392 339.446 162.712 338.55 162.904C337.718 163.096 336.822 163.128 335.862 163C334.966 162.936 334.166 162.744 333.462 162.424ZM341.622 155.32C342.902 154.872 344.31 154.136 345.846 153.112C347.382 152.024 348.758 150.904 349.974 149.752C351.254 148.536 352.022 147.512 352.278 146.68C352.47 145.976 352.662 145.464 352.854 145.144C353.11 144.76 353.366 144.472 353.622 144.28C354.134 143.768 354.774 142.808 355.542 141.4C356.374 139.992 357.174 138.424 357.942 136.696C358.71 134.968 359.35 133.368 359.862 131.896C360.438 130.36 360.758 129.24 360.822 128.536C360.822 128.408 360.918 127.864 361.11 126.904C361.302 125.944 361.526 125.24 361.781 124.792C361.91 124.536 362.006 124.216 362.07 123.832C362.134 123.384 362.198 122.52 362.262 121.24C362.326 119.96 362.39 117.912 362.454 115.096C362.39 112.792 362.262 111.064 362.07 109.912C361.942 108.76 361.622 108.056 361.11 107.8C360.982 107.672 360.534 107.608 359.766 107.608C358.998 107.608 358.198 107.672 357.366 107.8C356.534 107.864 355.894 107.992 355.446 108.184C355.126 108.248 354.806 108.408 354.486 108.664C354.166 108.856 353.814 108.952 353.43 108.952C352.918 109.208 352.534 109.528 352.278 109.912C352.022 110.296 351.894 110.584 351.894 110.776C351.894 111.288 351.67 111.768 351.222 112.216C350.774 112.6 350.262 112.632 349.686 112.312C348.662 112.376 347.894 112.568 347.382 112.888C346.87 113.144 346.39 113.624 345.942 114.328C345.558 115.032 344.95 116.088 344.118 117.496C342.326 118.904 341.046 120.28 340.278 121.624C339.51 122.968 339.062 123.992 338.934 124.696C337.59 127.128 336.566 129.016 335.862 130.36C335.158 131.64 334.646 132.792 334.326 133.816C334.07 134.84 333.846 136.088 333.654 137.56C333.078 138.648 332.662 139.8 332.406 141.016C332.15 142.232 331.926 143.032 331.734 143.416C331.606 143.736 331.51 144.408 331.446 145.432C331.382 146.456 331.35 147.608 331.35 148.888C331.35 150.168 331.382 151.352 331.446 152.44C331.574 153.464 331.734 154.168 331.926 154.552C332.31 156.024 333.334 156.824 334.998 156.952C336.726 157.08 338.934 156.536 341.622 155.32ZM144.832 287.648C142.272 287.008 139.968 285.728 137.92 283.808C135.936 281.888 134.656 279.904 134.08 277.856C134.016 277.024 133.92 275.936 133.792 274.592C133.728 273.248 133.696 272 133.696 270.848C133.76 269.696 133.856 269.024 133.984 268.832C134.176 268.704 134.272 268.32 134.272 267.68C134.208 267.424 134.24 267.008 134.368 266.432C134.56 265.792 134.752 265.152 134.944 264.512C135.264 263.744 135.424 263.136 135.424 262.688C135.424 262.176 135.392 261.792 135.328 261.536C135.328 261.536 135.424 261.344 135.616 260.96C135.808 260.512 136.032 260.16 136.288 259.904C136.672 259.52 136.832 259.136 136.768 258.752C136.768 258.368 136.768 258.176 136.768 258.176C136.704 257.92 136.768 257.568 136.96 257.12C137.152 256.672 137.344 256.32 137.536 256.064C137.664 255.936 137.824 255.68 138.016 255.296C138.272 254.848 138.4 254.624 138.4 254.624C138.4 254.432 138.528 253.92 138.784 253.088C139.104 252.256 139.456 251.36 139.84 250.4C140.224 249.376 140.576 248.448 140.896 247.616C141.28 246.784 141.568 246.24 141.76 245.984V245.792C142.016 245.152 142.368 244.48 142.816 243.776C142.88 243.456 143.04 242.944 143.296 242.24C143.552 241.472 143.84 240.736 144.16 240.032C144.864 238.496 145.728 236.768 146.752 234.848C147.84 232.864 148.992 230.912 150.208 228.992C151.424 227.008 152.576 225.248 153.664 223.712C154.816 222.112 155.808 220.928 156.64 220.16C157.728 218.944 158.592 218.304 159.232 218.24C159.872 218.176 160.672 218.624 161.632 219.584C162.08 220.032 162.4 220.576 162.592 221.216C162.784 221.856 162.848 222.432 162.784 222.944C162.784 223.392 162.656 223.648 162.4 223.712C161.952 223.968 161.28 224.704 160.384 225.92C159.488 227.072 158.464 228.448 157.312 230.048C156.224 231.648 155.136 233.312 154.048 235.04C153.024 236.704 152.128 238.208 151.36 239.552C150.528 241.408 149.76 243.04 149.056 244.448C148.352 245.792 148 246.464 148 246.464C147.936 246.656 147.872 246.816 147.808 246.944C147.744 247.072 147.68 247.2 147.616 247.328C146.656 249.312 145.856 251.136 145.216 252.8C144.576 254.4 143.936 256.096 143.296 257.888C142.912 258.336 142.688 258.784 142.624 259.232C142.56 259.68 142.528 259.904 142.528 259.904C142.4 259.84 142.304 260 142.24 260.384C142.176 260.704 142.048 261.088 141.856 261.536C141.536 261.792 141.344 262.208 141.28 262.784C141.216 263.296 141.184 263.808 141.184 264.32C140.736 265.472 140.32 266.88 139.936 268.544C139.552 270.144 139.264 271.712 139.072 273.248C138.944 274.72 138.912 275.872 138.976 276.704C139.104 277.792 139.648 278.784 140.608 279.68C141.632 280.512 142.848 281.216 144.256 281.792C144.96 282.048 145.568 282.272 146.08 282.464C146.592 282.592 147.072 282.656 147.52 282.656C148.032 282.72 148.672 282.72 149.44 282.656C150.272 282.528 151.392 282.336 152.8 282.08H152.704C153.536 281.952 154.4 281.792 155.296 281.6C156.256 281.344 157.152 281.12 157.984 280.928C158.752 280.8 159.488 280.672 160.192 280.544C160.896 280.352 161.44 280.192 161.824 280.064C163.232 279.68 164.256 279.424 164.896 279.296C165.536 279.104 166.016 279.136 166.336 279.392C166.656 279.648 166.88 279.968 167.008 280.352C167.136 280.672 167.104 281.12 166.912 281.696C166.784 282.016 166.272 282.496 165.376 283.136C164.48 283.712 163.392 284.288 162.112 284.864C160.896 285.44 159.68 285.92 158.464 286.304C157.184 286.88 155.648 287.328 153.856 287.648C152.128 287.968 150.432 288.128 148.768 288.128C147.168 288.128 145.856 287.968 144.832 287.648ZM171.499 287.168C170.347 286.528 169.707 285.824 169.579 285.056C169.515 284.288 169.963 282.944 170.923 281.024C171.883 279.104 173.387 276.128 175.435 272.096C176.971 269.216 178.123 266.976 178.891 265.376C179.723 263.712 180.267 262.528 180.523 261.824C180.843 261.12 181.003 260.672 181.003 260.48C180.875 259.904 180.939 259.456 181.195 259.136C181.451 258.752 181.867 258.432 182.443 258.176C182.763 257.856 183.275 257.28 183.979 256.448C184.747 255.616 185.451 254.624 186.091 253.472C186.667 252.128 187.339 250.752 188.107 249.344C188.875 247.936 189.899 246.176 191.179 244.064C192.459 241.888 194.123 239.072 196.171 235.616C197.451 233.376 198.859 231.104 200.395 228.8C201.931 226.432 203.563 224.096 205.291 221.792C205.995 220.896 206.635 220.192 207.211 219.68C207.787 219.104 208.363 218.848 208.939 218.912C209.707 218.912 210.571 219.168 211.531 219.68C212.555 220.192 213.483 220.864 214.315 221.696C215.147 222.528 215.755 223.424 216.139 224.384C216.459 224.896 216.587 225.984 216.523 227.648C216.459 229.312 216.331 231.328 216.139 233.696C215.947 236.064 215.723 238.592 215.467 241.28C215.275 243.904 214.987 247.008 214.603 250.592C214.219 254.176 213.835 257.92 213.451 261.824C213.131 265.728 212.875 269.504 212.683 273.152C212.491 276.736 212.491 279.872 212.683 282.56C212.747 283.136 212.747 283.68 212.683 284.192C212.619 284.704 212.587 285.12 212.587 285.44C212.203 285.824 211.563 285.984 210.667 285.92C209.835 285.92 209.003 285.728 208.171 285.344C207.403 284.96 206.955 284.48 206.827 283.904C206.635 283.712 206.507 283.456 206.443 283.136C206.443 282.752 206.475 281.984 206.539 280.832C206.603 279.68 206.667 277.856 206.731 275.36L207.211 259.808L205.963 259.904C205.387 259.904 204.299 259.968 202.699 260.096C201.099 260.224 199.371 260.416 197.515 260.672C195.659 260.864 193.931 261.088 192.331 261.344C190.795 261.536 189.739 261.728 189.163 261.92C188.587 261.92 187.883 262.304 187.051 263.072C186.283 263.84 185.547 264.832 184.843 266.048C184.587 266.944 184.107 267.904 183.403 268.928C182.763 269.888 182.443 270.528 182.443 270.848C181.995 271.168 181.611 271.552 181.291 272C181.035 272.448 180.907 272.672 180.907 272.672C180.907 273.056 180.587 274.016 179.947 275.552C179.371 277.024 178.635 278.688 177.739 280.544C176.843 282.336 175.947 283.904 175.051 285.248L173.035 288.32L171.499 287.168ZM191.371 256.256C191.371 256.256 191.691 256.192 192.331 256.064C193.035 255.936 193.835 255.808 194.731 255.68C195.691 255.488 196.555 255.392 197.323 255.392C200.011 254.752 201.963 254.336 203.179 254.144C204.395 253.888 205.227 253.76 205.675 253.76C206.187 253.76 206.635 253.856 207.019 254.048C207.275 254.368 207.499 254.56 207.691 254.624C207.947 254.688 208.075 254.72 208.075 254.72C208.139 254.592 208.235 253.856 208.363 252.512C208.491 251.168 208.651 249.504 208.843 247.52C209.099 245.536 209.323 243.488 209.515 241.376C209.771 239.2 209.963 237.216 210.091 235.424C210.219 233.568 210.315 232.16 210.379 231.2C210.443 229.984 210.507 228.896 210.571 227.936C210.635 226.912 210.667 226.4 210.667 226.4C210.283 226.4 209.451 227.104 208.171 228.512C206.955 229.92 205.579 231.776 204.043 234.08C202.507 236.384 201.067 238.848 199.723 241.472C199.083 242.688 198.475 243.776 197.899 244.736C197.323 245.696 196.875 246.176 196.555 246.176C196.427 246.304 196.043 246.88 195.403 247.904C194.827 248.864 194.187 249.984 193.483 251.264C192.779 252.48 192.203 253.6 191.755 254.624C191.307 255.584 191.179 256.128 191.371 256.256ZM237.972 286.592C237.716 286.848 237.428 286.944 237.108 286.88C236.788 286.88 236.276 286.72 235.572 286.4C234.356 286.08 233.588 285.6 233.268 284.96C233.012 284.384 233.204 283.392 233.844 281.984C234.1 281.536 234.42 280.576 234.804 279.104C235.252 277.568 235.732 275.808 236.244 273.824C236.756 271.84 237.268 269.856 237.78 267.872C238.292 265.888 238.74 264.16 239.124 262.688C239.508 261.152 239.764 260.128 239.892 259.616C239.892 259.104 240.02 258.08 240.276 256.544C240.596 255.008 240.884 253.28 241.14 251.36C241.844 250.016 242.324 248.544 242.58 246.944C242.9 245.344 243.124 244.192 243.252 243.488C243.508 242.464 243.796 241.376 244.116 240.224C244.5 239.072 244.82 237.92 245.076 236.768C245.332 235.744 245.588 234.688 245.844 233.6C246.164 232.512 246.324 231.808 246.324 231.488V229.952H242.772C241.812 230.016 240.404 230.016 238.548 229.952C236.692 229.888 235.028 229.856 233.556 229.856C230.548 229.728 228.532 229.44 227.508 228.992C226.548 228.48 226.004 227.52 225.876 226.112C225.748 225.344 225.908 224.8 226.356 224.48C226.804 224.16 227.86 223.968 229.524 223.904C231.188 223.84 233.748 223.872 237.204 224C239.892 223.872 242.228 223.872 244.212 224C246.196 224.064 247.316 224.096 247.572 224.096C247.828 223.84 247.988 223.584 248.052 223.328C248.116 223.072 248.212 222.816 248.34 222.56C248.34 222.24 248.372 221.888 248.436 221.504C248.564 221.056 248.884 220.736 249.396 220.544C249.908 219.584 250.484 219.2 251.124 219.392C251.828 219.52 252.532 220.096 253.236 221.12C253.492 221.696 253.716 222.304 253.908 222.944C254.164 223.584 254.516 224.16 254.964 224.672C255.22 224.416 255.892 224.256 256.98 224.192C258.068 224.128 259.22 224.064 260.436 224C261.908 224 263.22 223.968 264.372 223.904C265.524 223.776 266.324 223.712 266.772 223.712C267.348 223.392 268.084 223.232 268.98 223.232C269.94 223.232 270.9 223.296 271.86 223.424C273.332 223.424 274.356 223.488 274.932 223.616C275.572 223.744 275.988 223.968 276.18 224.288C276.18 224.544 276.18 224.8 276.18 225.056C276.244 225.312 276.404 225.568 276.66 225.824C276.916 226.08 277.044 226.272 277.044 226.4C277.044 226.464 276.916 226.752 276.66 227.264C276.404 227.52 275.956 227.744 275.316 227.936C274.676 228.064 273.972 228.128 273.204 228.128C272.756 228.128 271.988 228.192 270.9 228.32C269.812 228.384 268.884 228.416 268.116 228.416C266.644 228.672 264.98 228.896 263.124 229.088C261.332 229.216 259.316 229.344 257.076 229.472C256.116 229.472 255.22 229.536 254.388 229.664C253.556 229.728 253.14 229.92 253.14 230.24C252.884 230.24 252.532 230.912 252.084 232.256C251.7 233.6 251.316 235.008 250.932 236.48C250.548 238.144 250.132 239.584 249.684 240.8C249.3 242.016 248.98 242.816 248.724 243.2C248.98 243.456 249.076 243.776 249.012 244.16C249.012 244.544 248.82 245.216 248.436 246.176C248.18 247.072 247.924 247.776 247.668 248.288C247.476 248.8 247.38 249.312 247.38 249.824C247.38 249.824 247.22 250.336 246.9 251.36C246.644 252.32 246.388 253.536 246.132 255.008C246.004 256.416 245.812 257.6 245.556 258.56C245.364 259.52 245.14 260.128 244.884 260.384C244.884 260.384 244.756 260.608 244.5 261.056C244.244 261.44 244.116 261.888 244.116 262.4C244.116 262.976 243.988 263.936 243.732 265.28C243.54 266.56 243.316 267.776 243.06 268.928C242.804 270.08 242.58 270.72 242.388 270.848C243.028 270.976 242.932 271.84 242.1 273.44C242.1 274.08 242.004 274.72 241.812 275.36C241.62 276 241.524 276.448 241.524 276.704C241.14 277.92 240.692 279.264 240.18 280.736C239.668 282.208 239.22 283.488 238.836 284.576C238.452 285.728 238.164 286.4 237.972 286.592ZM282.106 287.648C279.546 287.648 277.242 287.488 275.194 287.168C273.21 286.912 271.386 286.144 269.722 284.864C267.738 283.392 266.586 281.472 266.266 279.104C266.01 276.672 266.49 273.184 267.706 268.64C268.026 267.04 268.378 265.632 268.762 264.416C269.21 263.2 269.594 262.592 269.914 262.592C269.978 262.272 270.074 261.824 270.202 261.248C270.33 260.608 270.458 259.872 270.586 259.04C270.906 257.888 271.13 257.056 271.258 256.544C271.386 255.968 271.642 255.488 272.026 255.104C272.218 254.976 272.442 254.56 272.698 253.856C272.954 253.088 273.114 252.64 273.178 252.512C273.178 252.512 273.21 252.288 273.274 251.84C273.338 251.328 273.498 250.752 273.754 250.112C274.714 248.512 275.194 247.456 275.194 246.944C275.322 246.688 275.578 246.304 275.962 245.792C276.41 245.28 276.762 244.608 277.018 243.776C278.938 240.384 280.506 237.472 281.722 235.04C282.938 232.544 283.674 230.688 283.93 229.472C284.25 228.768 284.538 228.16 284.794 227.648C285.114 227.072 285.498 226.528 285.946 226.016C285.818 225.696 286.074 225.344 286.714 224.96C287.354 224.576 288.25 224.16 289.402 223.712C290.554 223.264 291.802 222.88 293.146 222.56C294.554 222.24 295.93 222.048 297.274 221.984C297.658 221.728 298.49 221.536 299.77 221.408C301.114 221.28 302.65 221.216 304.378 221.216C306.106 221.216 307.706 221.28 309.178 221.408C310.586 221.408 311.706 221.6 312.538 221.984C313.37 222.368 314.202 222.752 315.034 223.136C315.354 223.456 315.578 223.84 315.706 224.288C315.898 224.736 316.026 225.152 316.09 225.536C316.154 225.856 316.186 226.016 316.186 226.016C316.186 226.336 315.29 226.528 313.498 226.592C311.706 226.656 309.754 226.688 307.642 226.688C305.274 226.688 303.002 226.88 300.826 227.264C298.65 227.648 297.21 227.84 296.506 227.84C295.61 228.096 294.81 228.256 294.106 228.32C293.466 228.384 293.146 228.416 293.146 228.416C293.018 228.416 292.602 228.928 291.898 229.952C291.258 230.912 290.522 232.064 289.69 233.408C288.922 234.688 288.218 235.904 287.578 237.056C287.002 238.144 286.714 238.784 286.714 238.976C286.714 239.616 286.458 240.32 285.946 241.088C285.434 241.856 284.826 242.752 284.122 243.776C283.482 244.608 283.066 245.376 282.874 246.08C282.682 246.72 282.874 247.168 283.45 247.424C284.474 247.232 285.85 247.04 287.578 246.848C289.37 246.656 291.13 246.496 292.858 246.368C294.65 246.176 296.026 246.08 296.986 246.08C298.074 245.76 298.97 245.696 299.674 245.888C300.378 246.08 300.89 246.272 301.21 246.464C301.978 246.592 302.522 246.848 302.842 247.232C303.162 247.552 303.29 247.872 303.226 248.192C303.226 248.512 303.002 248.768 302.554 248.96C302.17 249.344 301.21 249.792 299.674 250.304C298.138 250.816 296.346 251.328 294.298 251.84C292.25 252.352 290.17 252.832 288.058 253.28C286.01 253.664 284.25 253.984 282.778 254.24C281.306 254.496 280.442 254.592 280.186 254.528C279.802 253.632 279.514 253.664 279.322 254.624C279.194 255.52 278.49 257.376 277.21 260.192C276.506 261.792 275.866 263.328 275.29 264.8C274.778 266.208 274.33 267.712 273.946 269.312C273.626 270.848 273.274 272.608 272.89 274.592C272.442 276.32 272.314 277.728 272.506 278.816C272.762 279.84 273.914 280.832 275.962 281.792C277.242 282.048 278.938 282.144 281.05 282.08C283.226 282.016 285.69 281.632 288.442 280.928C289.594 280.224 290.65 279.68 291.61 279.296C292.57 278.848 293.274 278.496 293.722 278.24C294.042 278.24 294.522 278.176 295.162 278.048C295.866 277.856 296.346 277.76 296.602 277.76C297.114 277.056 297.754 276.704 298.522 276.704C298.65 276.704 298.938 276.96 299.386 277.472C299.898 277.92 300.378 278.432 300.826 279.008C301.274 279.584 301.466 279.968 301.402 280.16C301.402 280.8 300.698 281.44 299.29 282.08C297.882 282.72 295.578 283.68 292.378 284.96C290.778 285.664 289.466 286.208 288.442 286.592C287.482 286.976 286.554 287.232 285.658 287.36C284.762 287.552 283.578 287.648 282.106 287.648ZM315.308 287.168C315.052 287.168 314.828 287.04 314.636 286.784C314.508 286.592 314.444 286.368 314.444 286.112C314.444 285.792 314.38 285.632 314.252 285.632C313.74 285.632 313.452 285.152 313.388 284.192C313.324 283.232 313.548 282.528 314.06 282.08C314.188 282.08 314.252 281.664 314.252 280.832C314.252 280.448 314.284 280.128 314.348 279.872C314.476 279.616 314.508 279.36 314.444 279.104C314.444 278.912 314.508 278.624 314.636 278.24C314.828 277.856 314.924 277.536 314.924 277.28C314.924 277.024 315.052 276.64 315.308 276.128C315.628 275.616 315.884 275.136 316.076 274.688C316.268 274.368 316.492 273.824 316.748 273.056C317.004 272.288 317.26 271.584 317.516 270.944C317.516 270.816 317.772 270.272 318.284 269.312C318.86 268.352 319.308 267.296 319.628 266.144C319.884 265.184 320.108 264.192 320.3 263.168C320.492 262.08 320.588 261.472 320.588 261.344C320.588 260.96 320.588 260.64 320.588 260.384C320.588 260.128 320.588 260 320.588 260C321.1 260 321.356 259.904 321.356 259.712C321.612 259.456 321.74 259.328 321.74 259.328C321.804 259.264 321.836 259.232 321.836 259.232C321.836 259.232 321.868 259.072 321.932 258.752C321.996 258.368 322.252 258.048 322.7 257.792C323.276 257.088 323.596 256.608 323.66 256.352C323.788 256.096 323.852 255.872 323.852 255.68C323.852 255.68 324.268 254.56 325.1 252.32C325.932 250.016 327.276 246.72 329.132 242.432C330.22 240.704 331.116 238.912 331.82 237.056C332.588 235.136 333.132 233.952 333.452 233.504C333.964 232.288 334.22 231.296 334.22 230.528C334.22 230.528 334.188 230.528 334.124 230.528C334.124 230.528 334.06 230.528 333.932 230.528C333.356 230.848 332.908 230.88 332.588 230.624C332.332 230.304 331.82 229.824 331.052 229.184C330.604 228.672 330.252 228.128 329.996 227.552C329.74 226.912 329.612 226.56 329.612 226.496C329.612 226.304 329.996 225.952 330.764 225.44C331.532 224.864 332.428 224.32 333.452 223.808C334.54 223.232 335.468 222.848 336.236 222.656C337.004 222.272 337.964 222.08 339.116 222.08C340.332 222.08 341.548 222.176 342.764 222.368C343.98 222.56 345.004 222.752 345.836 222.944C347.948 223.392 349.996 224.48 351.98 226.208C354.028 227.936 355.564 229.888 356.588 232.064C357.1 232.96 357.42 234.08 357.548 235.424C357.74 236.704 357.772 238.08 357.644 239.552C357.58 240.96 357.356 242.304 356.972 243.584C356.524 244.8 355.788 246.208 354.764 247.808C353.804 249.344 352.716 250.848 351.5 252.32C350.284 253.728 349.164 254.912 348.14 255.872C347.18 256.832 346.476 257.312 346.028 257.312C345.58 257.312 345.324 257.312 345.26 257.312C345.196 257.312 345.164 257.312 345.164 257.312C345.164 257.376 344.844 257.632 344.204 258.08C343.628 258.464 342.892 258.944 341.996 259.52C341.1 260.032 340.236 260.48 339.404 260.864C338.572 261.248 337.964 261.472 337.58 261.536C337.132 261.536 336.78 261.568 336.524 261.632C336.268 261.696 336.044 261.92 335.852 262.304C335.468 262.944 335.244 263.488 335.18 263.936C335.18 264.32 335.244 265.056 335.372 266.144C335.692 266.912 336.268 268 337.1 269.408C337.932 270.752 338.732 271.968 339.5 273.056C340.268 274.144 340.716 274.688 340.844 274.688C341.1 274.688 341.452 274.816 341.9 275.072C342.348 275.328 342.796 275.744 343.244 276.32C344.524 277.152 345.708 277.76 346.796 278.144C347.884 278.464 348.396 278.4 348.332 277.952C348.332 277.76 348.556 277.632 349.004 277.568C349.452 277.504 349.9 277.44 350.348 277.376C350.796 277.376 351.18 277.44 351.5 277.568C351.82 277.696 352.012 277.76 352.076 277.76C352.076 277.76 352.076 277.952 352.076 278.336C352.14 278.72 352.204 279.168 352.268 279.68C352.268 280.448 352.14 281.248 351.884 282.08C351.628 282.848 351.244 283.488 350.732 284C350.22 284.576 349.548 284.896 348.716 284.96C346.54 285.216 344.268 284.64 341.9 283.232C339.532 281.824 337.292 279.808 335.18 277.184C333.068 274.496 331.308 271.456 329.9 268.064C329.452 266.592 329.1 265.76 328.844 265.568C328.652 265.312 328.076 265.248 327.116 265.376C326.348 265.376 325.836 265.472 325.58 265.664C325.388 265.856 325.036 266.592 324.524 267.872C324.46 268.384 324.396 268.864 324.332 269.312C324.332 269.696 324.172 269.888 323.852 269.888C323.852 269.888 323.692 270.272 323.372 271.04C323.052 271.744 322.668 272.544 322.22 273.44C322.092 274.272 321.868 275.04 321.548 275.744C321.292 276.384 321.164 276.832 321.164 277.088C321.164 277.792 321.132 278.272 321.068 278.528C321.004 278.784 320.812 278.912 320.492 278.912C320.556 279.168 320.524 279.424 320.396 279.68C320.268 279.936 320.204 280.256 320.204 280.64C320.204 280.704 320.172 280.992 320.108 281.504C320.108 281.952 320.044 282.496 319.916 283.136C319.66 283.776 319.372 284.224 319.052 284.48C318.796 284.8 318.7 285.12 318.764 285.44C318.764 285.76 318.572 286.08 318.188 286.4C317.868 286.72 317.42 286.944 316.844 287.072C316.332 287.264 315.82 287.296 315.308 287.168ZM330.38 256.256C330.828 257.728 332.108 257.664 334.22 256.064C336.396 255.296 337.9 254.656 338.732 254.144C339.628 253.568 340.396 253.056 341.036 252.608C341.612 252.288 342.092 251.936 342.476 251.552C342.86 251.104 343.052 250.88 343.052 250.88C343.5 250.816 344.236 250.336 345.26 249.44C346.348 248.544 347.436 247.488 348.524 246.272C349.612 244.992 350.412 243.776 350.924 242.624C351.5 241.6 351.884 240.832 352.076 240.32C352.332 239.808 352.46 239.296 352.46 238.784C352.524 238.272 352.556 237.568 352.556 236.672C352.236 235.52 351.82 234.56 351.308 233.792C350.86 233.024 350.252 232.352 349.484 231.776C348.716 231.2 347.628 230.656 346.22 230.144C345.26 229.632 344.044 229.344 342.572 229.28C341.1 229.152 339.852 229.184 338.828 229.376C337.804 229.568 337.452 229.92 337.772 230.432C338.028 231.52 338.252 232.704 338.444 233.984C338.7 235.2 338.54 236.256 337.964 237.152C337.964 237.728 337.516 239.008 336.62 240.992C335.724 242.976 334.86 245.088 334.028 247.328C332.94 249.824 332.044 251.904 331.34 253.568C330.7 255.168 330.38 256.064 330.38 256.256Z" fill="white"/>
</g>
</svg>
